<?xml version="1.0" encoding="UTF-8"?><svg id="Layer_2" xmlns="http://www.w3.org/2000/svg" viewBox="0 0 1092 240"><defs><style>.cls-1{fill:#8c4efd;}.cls-2{fill:#08005c;}</style></defs><g id="Layer_1-2"><g><path class="cls-2" d="M304,219.23v-84.6h24.99v80.39c0,1.96,.9,2.86,2.86,2.86h26.42c2.11,0,2.86-.9,2.86-2.86v-80.39h24.99v84.6c0,13.7-6.92,20.77-20.77,20.77h-40.57c-13.7,0-20.77-7.08-20.77-20.77Z"/><path class="cls-2" d="M405.57,134.62h25.44l37.18,61.87v-61.87h24.24v105.38h-23.18l-39.44-65.33v65.33h-24.24v-105.38Z"/><path class="cls-2" d="M511.9,134.62h24.99v83.4h47.64v21.98h-72.63v-105.38Z"/><path class="cls-2" d="M603.99,134.62h24.99v105.38h-24.99v-105.38Z"/><path class="cls-2" d="M648.44,134.62h27.85l25.89,58.71,25.74-58.71h27.7v105.38h-24.39v-63.98l-21.23,50.58h-16.56l-21.23-50.58v63.98h-23.79v-105.38Z"/><path class="cls-2" d="M775.08,134.62h24.99v105.38h-24.99v-105.38Z"/><path class="cls-2" d="M846.93,156.45h-27.4v-21.83h79.94v21.83h-27.55v83.55h-24.99v-83.55Z"/><path class="cls-2" d="M918.93,134.62h72.56v21.68h-47.57v19.12h38.09v21.38h-38.09v21.53h47.57v21.68h-72.56v-105.38Z"/><path class="cls-2" d="M1010.95,134.62h60.22c14,0,20.77,6.62,20.77,20.77v63.83c0,14-6.77,20.77-20.77,20.77h-60.22v-105.38Zm53.14,83.7c2.11,0,2.86-.75,2.86-2.86v-56.3c0-2.26-.75-2.86-2.86-2.86h-28.15v62.02h28.15Z"/><path class="cls-2" d="M304,0h72.56V21.68h-47.57v19.12h38.09v21.38h-38.09v21.53h47.57v21.68h-72.56V0Z"/><path class="cls-2" d="M392.21,0h60.21c14,0,20.77,6.62,20.77,20.77v63.83c0,14-6.77,20.77-20.77,20.77h-60.21V0Zm53.14,83.7c2.11,0,2.86-.75,2.86-2.86V24.54c0-2.26-.75-2.86-2.86-2.86h-28.15v62.02h28.15Z"/><path class="cls-2" d="M488.84,0h27.85l25.89,58.71L568.33,0h27.7V105.38h-24.39V41.4l-21.23,50.58h-16.56l-21.23-50.58v63.98h-23.79V0Z"/><path class="cls-2" d="M611.67,84.6V20.77c0-14.15,6.77-20.77,20.77-20.77h40.49c14.15,0,20.77,6.62,20.77,20.77v63.83c0,14-6.62,20.77-20.77,20.77h-40.49c-14,0-20.77-6.77-20.77-20.77Zm54.19-.9c2.26,0,2.86-.75,2.86-2.86V24.54c0-2.26-.6-2.86-2.86-2.86h-26.34c-2.11,0-2.86,.6-2.86,2.86v56.3c0,2.11,.75,2.86,2.86,2.86h26.34Z"/><path class="cls-2" d="M709.36,0h25.44l37.18,61.87V0h24.24V105.38h-23.18l-39.44-65.33V105.38h-24.24V0Z"/><path class="cls-2" d="M839.27,21.83h-27.4V0h79.94V21.83h-27.55V105.38h-24.99V21.83Z"/><path class="cls-2" d="M907.45,84.6V20.77c0-14.15,6.77-20.77,20.77-20.77h40.49c14.15,0,20.77,6.62,20.77,20.77v63.83c0,14-6.62,20.77-20.77,20.77h-40.49c-14,0-20.77-6.77-20.77-20.77Zm54.19-.9c2.26,0,2.86-.75,2.86-2.86V24.54c0-2.26-.6-2.86-2.86-2.86h-26.34c-2.11,0-2.86,.6-2.86,2.86v56.3c0,2.11,.75,2.86,2.86,2.86h26.34Z"/><path class="cls-2" d="M1005.14,0h25.44l37.18,61.87V0h24.24V105.38h-23.18l-39.44-65.33V105.38h-24.24V0Z"/><path class="cls-1" d="M234,48h-30c-6.63,0-12-5.37-12-12V6c0-3.31-2.69-6-6-6H54c-3.31,0-6,2.69-6,6v30c0,6.63-5.37,12-12,12H6c-3.31,0-6,2.69-6,6v36c0,3.31,2.69,6,6,6h30c6.63,0,12,5.37,12,12v24c0,6.63-5.37,12-12,12H6c-3.31,0-6,2.69-6,6v36c0,3.31,2.69,6,6,6h30c6.63,0,12,5.37,12,12v30c0,3.31,2.69,6,6,6H186c3.31,0,6-2.69,6-6v-30c0-6.63,5.37-12,12-12h30c3.31,0,6-2.69,6-6V54c0-3.31-2.69-6-6-6ZM60,192c-6.63,0-12-5.37-12-12v-24c0-6.63,5.37-12,12-12h78c3.31,0,6-2.69,6-6v-36c0-3.31-2.69-6-6-6H60c-6.63,0-12-5.37-12-12v-24c0-6.63,5.37-12,12-12h120c6.63,0,12,5.37,12,12v120c0,6.63-5.37,12-12,12H60Z"/></g></g></svg>