<svg viewBox="0 0 105 81" xmlns="http://www.w3.org/2000/svg" xmlns:xlink="http://www.w3.org/1999/xlink" class="h-12 md:h-16 xl:h-24">
            <title>Amii</title>
            <defs>
              <path id="a" d="M0 .5952h31.8163488V29H0z"></path>
              <path id="c" d="M.2948.295h5.478v5.6116H.2948z"></path>
            </defs>
            <g fill="none" fill-rule="evenodd">
              <path d="M98.5702 37.4134c-2.351 1.42-6.868.399-12.522-1.838.084.227.163.447.241.664-.078-.217-.158-.437-.242-.665-.691-1.878-1.555-4.059-2.559-6.565-.097-.242-.197-.492-.295-.736 3.244-1.39 7.031-2.168 10.321-1.82 3.166.337 6.916 1.844 6.812 7.107-.038 1.902-.612 3.163-1.756 3.853m-13.44-2.061c.085.228.168.452.249.674-.081-.222-.164-.446-.249-.674m-2.654-6.76c.095.236.191.474.283.709.8 1.995 1.607 4.011 2.304 5.872-2.328-.954-4.824-2.089-7.435-3.336 1.219-1.222 2.919-2.341 4.848-3.245m-5.553 2.906c-2.427-1.168-4.942-2.422-7.49-3.696 3.687-2.143 7.126-4.477 10.082-6.838.834 2.278 1.752 4.601 2.663 6.883-2.123 1.017-3.957 2.292-5.255 3.651m-7.49-3.696c-.249.145-.502.287-.754.43.071-.151.057-.666-.033-.824.263.131.525.262.787.394m8.609-24.151c.653-.73 1.646-1.095 2.969-1.095.872 0 1.887.158 3.041.476 3.455.951 5.027 2.714 4.668 5.237-.436 3.067-3.685 7.166-8.834 11.403-2.485-6.983-4.091-13.507-1.844-16.021m-38.7 33.262c-7.367-.102-11.474-3.409-12.208-9.83-.596-5.212.326-8.711 2.74-10.399 1.274-.891 2.945-1.284 4.919-1.284 8.029 0 21.088 6.496 32.947 12.432-10.292 5.739-20.971 9.173-28.398 9.081m54.255-11.238c-3.633-.389-7.461.422-10.706 1.844-.921-2.308-1.868-4.71-2.727-7.08 5.259-4.312 8.85-8.669 9.332-12.059.291-2.047-.381-4.767-5.236-6.104-3.218-.886-5.506-.598-6.803.853-2.546 2.85-.888 9.643 1.781 17.07-2.61 2.089-5.673 4.204-9.076 6.235-.532.318-1.069.625-1.604.93.002.001.004.002.007.004h-.002c-.042-.021-.084-.043-.126-.064-15.794-7.905-32.126-16.078-39.012-11.263-2.705 1.893-3.709 5.533-3.07 11.131.775 6.78 5.262 10.418 12.977 10.524.12.002.239.003.362.003 8.526-.001 19.465-4.054 28.925-9.428 2.637 1.321 5.244 2.622 7.763 3.835-.763.927-1.271 1.879-1.451 2.803-.511 2.627.943 6.347 10.774 9.156l.216-.753c-7.226-2.065-10.855-4.995-10.221-8.253.173-.887.655-1.773 1.374-2.621 2.94 1.407 5.751 2.679 8.351 3.715 1.29 3.548 2.065 6.366 1.412 7.091-.158.173-.465.196-.916.068l-.216.753c.261.075.503.113.719.113.416 0 .749-.137.994-.41.853-.944.357-3.346-1.026-7.239 5.59 2.138 10.099 3.054 12.583 1.556 1.373-.83 2.091-2.347 2.134-4.509.092-4.57-2.576-7.376-7.512-7.901" fill="#6D98AB"></path>
              <g transform="translate(.5 51.7054)">
                <mask id="b" fill="#fff">
                  <use xlink:href="#a"></use>
                </mask>
                <path d="M14.3319 25.4492c-6.327 0-10.136-4.261-10.136-10.587s3.809-10.716 10.136-10.716c6.327 0 10.2 4.39 10.2 10.716s-3.873 10.587-10.2 10.587m16.579-.23c-1.617-.027-2.065-1.292-2.065-3.487V2.6942c0-1.162-.259-1.485-1.486-1.485h-1.096c-1.162 0-1.485.323-1.485 1.485v1.827c-2.491-2.479-6.063-3.926-10.447-3.926-8.78 0-14.332 5.875-14.332 14.267 0 8.393 5.552 14.138 14.332 14.138 4.487 0 8.141-1.508 10.648-4.096.474 2.691 1.881 3.863 5.027 3.863 1.32 0 1.882-1.125 1.802-2.203-.061-.837-.489-1.34-.898-1.345" fill="#BE477B" mask="url(#b)"></path>
              </g>
              <path d="M75.954 78.6585c0 1.162-.322 1.484-1.484 1.484h-1.162c-1.162 0-1.485-.322-1.485-1.484v-14.908c0-5.938-3.291-7.81-6.517-7.81-3.163 0-6.583 1.872-6.583 7.81v14.908c0 1.162-.324 1.484-1.485 1.484h-1.097c-1.226 0-1.485-.322-1.485-1.484v-14.908c0-5.938-3.356-7.81-6.583-7.81-3.162 0-6.518 1.872-6.518 7.81v14.908c0 1.162-.258 1.484-1.484 1.484h-1.097c-1.227 0-1.485-.322-1.485-1.484v-14.714c0-9.1 5.292-11.553 10.196-11.553 3.744 0 7.294 1.484 9.037 5.809 1.613-4.195 5.163-5.809 9.035-5.809 4.904 0 10.197 2.453 10.197 11.553v14.714zM88.1512 73.5599v-19.039c0-1.161-.259-1.484-1.484-1.484h-1.097c-1.162 0-1.485.323-1.485 1.484v19.491c0 4.647 1.17 6.583 5.227 6.583 1.32 0 1.882-1.125 1.803-2.204-.061-.836-.49-1.339-.899-1.346-1.617-.026-2.065-1.291-2.065-3.485M101.8593 73.5599v-19.039c0-1.161-.258-1.484-1.484-1.484h-1.097c-1.162 0-1.484.323-1.484 1.484v19.491c0 4.647 1.17 6.583 5.227 6.583 1.319 0 1.882-1.125 1.802-2.204-.061-.836-.489-1.339-.899-1.346-1.617-.026-2.065-1.291-2.065-3.485M96.8212 37.5599c0-1.67 1.203-2.806 2.807-2.806 1.469 0 2.672 1.136 2.672 2.806 0 1.737-1.203 2.806-2.672 2.806-1.604 0-2.807-1.069-2.807-2.806M66.0917 27.9769c0-1.67 1.202-2.806 2.807-2.806 1.468 0 2.672 1.136 2.672 2.806 0 1.737-1.204 2.806-2.672 2.806-1.605 0-2.807-1.069-2.807-2.806M83.7245 43.1165c0-1.67 1.201-2.806 2.806-2.806 1.469 0 2.672 1.136 2.672 2.806 0 1.737-1.203 2.806-2.672 2.806-1.605 0-2.806-1.069-2.806-2.806M26.9515 33.2225c0-1.67 1.202-2.806 2.806-2.806 1.47 0 2.672 1.136 2.672 2.806 0 1.737-1.202 2.806-2.672 2.806-1.604 0-2.806-1.069-2.806-2.806" fill="#BE477B"></path>
              <g transform="translate(80.5 -.2946)">
                <mask id="d" fill="#fff">
                  <use xlink:href="#c"></use>
                </mask>
                <path d="M.2948 3.1006c0-1.67 1.201-2.806 2.806-2.806 1.469 0 2.672 1.136 2.672 2.806 0 1.737-1.203 2.806-2.672 2.806-1.605 0-2.806-1.069-2.806-2.806" fill="#BE477B" mask="url(#d)"></path>
              </g>
            </g>
          </svg>