<svg width="74" height="74" viewBox="0 0 74 74" xmlns="http://www.w3.org/2000/svg"><title>DevEdmonton - Slack - v2</title><g fill="none" fill-rule="evenodd"><path fill="#265DAD" fill-rule="nonzero" d="M0 0h74v74H0z"/><g fill="#FFF"><path d="M21.9 27.434h-2.666v18.99H21.9c1.849 0 2.844-.746 2.844-2.951V30.385c0-2.205-.995-2.951-2.844-2.951m6.187 2.311v14.368c0 3.663-2.276 5.263-6.045 5.263h-4.979c-.782 0-1.173-.427-1.173-1.174V25.655c0-.748.391-1.173 1.173-1.173h4.979c3.77 0 6.045 1.6 6.045 5.263M41.354 49.376h-8.25c-.784 0-1.173-.427-1.173-1.174V25.655c0-.746.39-1.173 1.173-1.173h8.144c.782 0 1.173.427 1.173 1.173v.604c0 .783-.391 1.175-1.173 1.175h-5.975v7.823h4.872c.783 0 1.174.427 1.174 1.173v.64c0 .747-.391 1.174-1.174 1.174h-4.872v8.18h6.081c.783 0 1.174.392 1.174 1.174v.604c0 .747-.391 1.174-1.174 1.174M56.436 33.551h-.925c-.782 0-1.175-.426-1.175-1.173v-2.205c0-1.991-.959-2.774-2.666-2.774-1.708 0-2.668.783-2.668 2.774v1.707c0 1.494.533 2.027 1.957 2.845l3.236 1.778c2.134 1.209 3.485 2.42 3.485 4.8v3.452c0 3.733-2.169 5.191-5.938 5.191h-.072c-3.77 0-5.94-1.422-5.94-5.191v-3.059c0-.746.391-1.173 1.174-1.173h.924c.783 0 1.174.427 1.174 1.173v2.49c0 1.955.96 2.844 2.704 2.844 1.74 0 2.703-.889 2.703-2.844v-1.958c0-1.492-.535-2.132-1.992-2.951L49.215 37.5c-2.276-1.317-3.485-2.384-3.485-4.766v-3.13c0-3.591 2.491-5.122 5.903-5.122h.073c3.414 0 5.903 1.53 5.903 5.122v2.774c0 .747-.391 1.173-1.173 1.173"/></g></g></svg>