<svg width="74" height="74" viewBox="0 0 74 74" xmlns="http://www.w3.org/2000/svg"><title>DevEdmonton - Slack - v1</title><g fill="none" fill-rule="evenodd"><path fill="#265DAD" fill-rule="nonzero" d="M0 0h74v74H0z"/><path d="M18.6 30.099c0 .604-.25 1.031-.747 1.387l-6.9 4.694 6.9 4.694c.498.32.747.782.747 1.386v.855c0 .96-.64 1.352-1.458.747l-7.895-5.691c-.535-.391-.746-.818-.746-1.422V35.61c0-.605.249-1.067.746-1.423l7.895-5.691c.818-.603 1.458-.212 1.458.748v.854z" fill="#ABAAC3"/><path d="M31.401 26.934h-2.667v18.99h2.667c1.85 0 2.845-.746 2.845-2.951V29.885c0-2.205-.996-2.951-2.845-2.951m6.188 2.311v14.368c0 3.663-2.276 5.263-6.046 5.263h-4.978c-.782 0-1.174-.427-1.174-1.174V25.155c0-.748.392-1.173 1.174-1.173h4.978c3.77 0 6.046 1.6 6.046 5.263" fill="#FFF"/><path d="M52.818 23.876l-7.326 25.996c-.213.676-.641.996-1.315.996h-.57c-.819 0-1.208-.533-.997-1.314l7.329-25.998c.212-.676.639-.996 1.313-.996h.57c.82 0 1.21.534.996 1.316zm2.523 6.508v-.854c0-.96.642-1.351 1.458-.746l7.895 5.69c.498.355.747.819.747 1.423v1.138c0 .603-.212 1.031-.747 1.423l-7.895 5.69c-.816.604-1.458.213-1.458-.748v-.853c0-.604.25-1.067.747-1.387l6.899-4.695-6.899-4.693c-.498-.357-.747-.784-.747-1.388z" fill="#ABAAC3"/></g></svg>